<mxfile host="65bd71144e">
    <diagram name="Page-1" id="f8higoZa323-nQzgr06Q">
        <mxGraphModel dx="1560" dy="1857" grid="1" gridSize="10" guides="1" tooltips="1" connect="1" arrows="1" fold="1" page="1" pageScale="1" pageWidth="827" pageHeight="1169" math="0" shadow="0">
            <root>
                <mxCell id="0"/>
                <mxCell id="1" parent="0"/>
                <mxCell id="hr4RtkWxtsuXZ8PvqBrc-34" value="" style="rounded=0;whiteSpace=wrap;html=1;" parent="1" vertex="1">
                    <mxGeometry x="20" y="-60" width="1000" height="880" as="geometry"/>
                </mxCell>
                <mxCell id="hr4RtkWxtsuXZ8PvqBrc-1" value="Patient&lt;div&gt;&lt;br&gt;&lt;/div&gt;" style="shape=umlActor;verticalLabelPosition=bottom;verticalAlign=top;html=1;outlineConnect=0;" parent="1" vertex="1">
                    <mxGeometry x="84" y="280" width="40" height="80" as="geometry"/>
                </mxCell>
                <mxCell id="hr4RtkWxtsuXZ8PvqBrc-2" value="Doctor" style="shape=umlActor;verticalLabelPosition=bottom;verticalAlign=top;html=1;outlineConnect=0;" parent="1" vertex="1">
                    <mxGeometry x="880" y="330" width="40" height="80" as="geometry"/>
                </mxCell>
                <mxCell id="hr4RtkWxtsuXZ8PvqBrc-3" value="Service Auth." style="shape=umlActor;verticalLabelPosition=bottom;verticalAlign=top;html=1;outlineConnect=0;" parent="1" vertex="1">
                    <mxGeometry x="870" y="160" width="40" height="80" as="geometry"/>
                </mxCell>
                <mxCell id="hr4RtkWxtsuXZ8PvqBrc-5" value="" style="rounded=1;whiteSpace=wrap;html=1;" parent="1" vertex="1">
                    <mxGeometry x="186.75" y="-30" width="666.5" height="800" as="geometry"/>
                </mxCell>
                <mxCell id="hr4RtkWxtsuXZ8PvqBrc-6" value="Online Appointment System&lt;br&gt;&quot;MEDIQ&quot;" style="text;html=1;align=center;verticalAlign=middle;whiteSpace=wrap;rounded=0;" parent="1" vertex="1">
                    <mxGeometry x="391" y="60" width="260" height="30" as="geometry"/>
                </mxCell>
                <mxCell id="hr4RtkWxtsuXZ8PvqBrc-7" value="Login" style="ellipse;whiteSpace=wrap;html=1;strokeColor=#000000;" parent="1" vertex="1">
                    <mxGeometry x="460" y="120" width="120" height="60" as="geometry"/>
                </mxCell>
                <mxCell id="hr4RtkWxtsuXZ8PvqBrc-8" value="Browse Doctors" style="ellipse;whiteSpace=wrap;html=1;" parent="1" vertex="1">
                    <mxGeometry x="578.5" y="430" width="120" height="60" as="geometry"/>
                </mxCell>
                <mxCell id="hr4RtkWxtsuXZ8PvqBrc-9" value="View Appointments" style="ellipse;whiteSpace=wrap;html=1;" parent="1" vertex="1">
                    <mxGeometry x="480" y="515" width="120" height="60" as="geometry"/>
                </mxCell>
                <mxCell id="hr4RtkWxtsuXZ8PvqBrc-10" value="Manage Availability" style="ellipse;whiteSpace=wrap;html=1;" parent="1" vertex="1">
                    <mxGeometry x="470" y="605" width="120" height="60" as="geometry"/>
                </mxCell>
                <mxCell id="hr4RtkWxtsuXZ8PvqBrc-12" value="Cancel Appointment" style="ellipse;whiteSpace=wrap;html=1;" parent="1" vertex="1">
                    <mxGeometry x="200" y="515" width="90" height="60" as="geometry"/>
                </mxCell>
                <mxCell id="hr4RtkWxtsuXZ8PvqBrc-18" value="" style="endArrow=none;html=1;rounded=0;exitX=0;exitY=0.5;exitDx=0;exitDy=0;entryX=1;entryY=0.3333333333333333;entryDx=0;entryDy=0;entryPerimeter=0;" parent="1" source="hr4RtkWxtsuXZ8PvqBrc-7" target="hr4RtkWxtsuXZ8PvqBrc-1" edge="1">
                    <mxGeometry width="50" height="50" relative="1" as="geometry">
                        <mxPoint x="444" y="370" as="sourcePoint"/>
                        <mxPoint x="254" y="310" as="targetPoint"/>
                    </mxGeometry>
                </mxCell>
                <mxCell id="hr4RtkWxtsuXZ8PvqBrc-19" value="" style="endArrow=none;html=1;rounded=0;exitX=1;exitY=0.3333333333333333;exitDx=0;exitDy=0;exitPerimeter=0;entryX=0;entryY=0.5;entryDx=0;entryDy=0;" parent="1" source="hr4RtkWxtsuXZ8PvqBrc-1" target="4" edge="1">
                    <mxGeometry width="50" height="50" relative="1" as="geometry">
                        <mxPoint x="444" y="370" as="sourcePoint"/>
                        <mxPoint x="494" y="320" as="targetPoint"/>
                    </mxGeometry>
                </mxCell>
                <mxCell id="hr4RtkWxtsuXZ8PvqBrc-20" value="" style="endArrow=none;html=1;rounded=0;exitX=1;exitY=0.3333333333333333;exitDx=0;exitDy=0;exitPerimeter=0;entryX=0;entryY=0;entryDx=0;entryDy=0;" parent="1" source="hr4RtkWxtsuXZ8PvqBrc-1" target="hr4RtkWxtsuXZ8PvqBrc-9" edge="1">
                    <mxGeometry width="50" height="50" relative="1" as="geometry">
                        <mxPoint x="444" y="370" as="sourcePoint"/>
                        <mxPoint x="494" y="320" as="targetPoint"/>
                    </mxGeometry>
                </mxCell>
                <mxCell id="hr4RtkWxtsuXZ8PvqBrc-21" value="" style="endArrow=none;html=1;rounded=0;exitX=1;exitY=0.5;exitDx=0;exitDy=0;entryX=0;entryY=0.3333333333333333;entryDx=0;entryDy=0;entryPerimeter=0;" parent="1" source="hr4RtkWxtsuXZ8PvqBrc-7" target="hr4RtkWxtsuXZ8PvqBrc-2" edge="1">
                    <mxGeometry width="50" height="50" relative="1" as="geometry">
                        <mxPoint x="444" y="370" as="sourcePoint"/>
                        <mxPoint x="494" y="320" as="targetPoint"/>
                    </mxGeometry>
                </mxCell>
                <mxCell id="hr4RtkWxtsuXZ8PvqBrc-22" value="" style="endArrow=none;html=1;rounded=0;entryX=0;entryY=0.3333333333333333;entryDx=0;entryDy=0;entryPerimeter=0;exitX=1;exitY=0.5;exitDx=0;exitDy=0;" parent="1" source="2" target="hr4RtkWxtsuXZ8PvqBrc-2" edge="1">
                    <mxGeometry width="50" height="50" relative="1" as="geometry">
                        <mxPoint x="730" y="460" as="sourcePoint"/>
                        <mxPoint x="494" y="320" as="targetPoint"/>
                    </mxGeometry>
                </mxCell>
                <mxCell id="hr4RtkWxtsuXZ8PvqBrc-23" value="" style="endArrow=none;html=1;rounded=0;entryX=0;entryY=0.3333333333333333;entryDx=0;entryDy=0;entryPerimeter=0;exitX=1;exitY=0.5;exitDx=0;exitDy=0;" parent="1" source="hr4RtkWxtsuXZ8PvqBrc-10" target="hr4RtkWxtsuXZ8PvqBrc-2" edge="1">
                    <mxGeometry width="50" height="50" relative="1" as="geometry">
                        <mxPoint x="444" y="370" as="sourcePoint"/>
                        <mxPoint x="494" y="320" as="targetPoint"/>
                    </mxGeometry>
                </mxCell>
                <mxCell id="hr4RtkWxtsuXZ8PvqBrc-25" value="" style="endArrow=block;dashed=1;endFill=0;endSize=12;html=1;rounded=0;exitX=0.989;exitY=0.392;exitDx=0;exitDy=0;entryX=0;entryY=0.5;entryDx=0;entryDy=0;exitPerimeter=0;" parent="1" source="hr4RtkWxtsuXZ8PvqBrc-12" target="hr4RtkWxtsuXZ8PvqBrc-9" edge="1">
                    <mxGeometry width="160" relative="1" as="geometry">
                        <mxPoint x="204" y="430" as="sourcePoint"/>
                        <mxPoint x="364" y="430" as="targetPoint"/>
                    </mxGeometry>
                </mxCell>
                <mxCell id="hr4RtkWxtsuXZ8PvqBrc-30" value="" style="endArrow=none;html=1;rounded=0;entryX=0;entryY=0.3333333333333333;entryDx=0;entryDy=0;entryPerimeter=0;exitX=1;exitY=0.5;exitDx=0;exitDy=0;" parent="1" source="hr4RtkWxtsuXZ8PvqBrc-7" target="hr4RtkWxtsuXZ8PvqBrc-3" edge="1">
                    <mxGeometry width="50" height="50" relative="1" as="geometry">
                        <mxPoint x="444" y="370" as="sourcePoint"/>
                        <mxPoint x="494" y="320" as="targetPoint"/>
                    </mxGeometry>
                </mxCell>
                <mxCell id="UJzTrE47GUZq4vCZpSli-5" value="" style="endArrow=none;html=1;rounded=0;exitX=1;exitY=0.3333333333333333;exitDx=0;exitDy=0;exitPerimeter=0;entryX=0;entryY=0.5;entryDx=0;entryDy=0;" parent="1" source="hr4RtkWxtsuXZ8PvqBrc-1" target="UJzTrE47GUZq4vCZpSli-2" edge="1">
                    <mxGeometry width="50" height="50" relative="1" as="geometry">
                        <mxPoint x="134" y="317" as="sourcePoint"/>
                        <mxPoint x="400" y="410" as="targetPoint"/>
                    </mxGeometry>
                </mxCell>
                <mxCell id="UJzTrE47GUZq4vCZpSli-6" value="" style="endArrow=none;html=1;rounded=0;entryX=0;entryY=0.3333333333333333;entryDx=0;entryDy=0;entryPerimeter=0;exitX=1;exitY=0.5;exitDx=0;exitDy=0;" parent="1" source="UJzTrE47GUZq4vCZpSli-2" target="hr4RtkWxtsuXZ8PvqBrc-3" edge="1">
                    <mxGeometry width="50" height="50" relative="1" as="geometry">
                        <mxPoint x="524" y="250" as="sourcePoint"/>
                        <mxPoint x="694" y="267" as="targetPoint"/>
                    </mxGeometry>
                </mxCell>
                <mxCell id="UJzTrE47GUZq4vCZpSli-7" value="Select Availability" style="ellipse;whiteSpace=wrap;html=1;strokeColor=#000000;" parent="1" vertex="1">
                    <mxGeometry x="590" y="280" width="108.5" height="60" as="geometry"/>
                </mxCell>
                <mxCell id="UJzTrE47GUZq4vCZpSli-12" value="" style="endArrow=none;html=1;rounded=0;entryX=0;entryY=0.3333333333333333;entryDx=0;entryDy=0;entryPerimeter=0;exitX=1;exitY=0.5;exitDx=0;exitDy=0;" parent="1" target="UJzTrE47GUZq4vCZpSli-2" edge="1">
                    <mxGeometry width="50" height="50" relative="1" as="geometry">
                        <mxPoint x="524" y="250" as="sourcePoint"/>
                        <mxPoint x="787" y="187" as="targetPoint"/>
                    </mxGeometry>
                </mxCell>
                <mxCell id="UJzTrE47GUZq4vCZpSli-2" value="&lt;font style=&quot;color: rgb(77, 153, 0);&quot;&gt;Register&lt;/font&gt;" style="ellipse;whiteSpace=wrap;html=1;strokeColor=#000000;" parent="1" vertex="1">
                    <mxGeometry x="460" y="210" width="120" height="60" as="geometry"/>
                </mxCell>
                <mxCell id="UJzTrE47GUZq4vCZpSli-14" value="" style="endArrow=block;dashed=1;endFill=0;endSize=12;html=1;rounded=0;entryX=1;entryY=0.5;entryDx=0;entryDy=0;exitX=0;exitY=0.5;exitDx=0;exitDy=0;" parent="1" source="UJzTrE47GUZq4vCZpSli-15" target="2" edge="1">
                    <mxGeometry width="160" relative="1" as="geometry">
                        <mxPoint x="520" y="573" as="sourcePoint"/>
                        <mxPoint x="490" y="518" as="targetPoint"/>
                    </mxGeometry>
                </mxCell>
                <mxCell id="UJzTrE47GUZq4vCZpSli-15" value="&lt;font style=&quot;color: rgb(77, 153, 0);&quot;&gt;Add Diagnosis&lt;/font&gt;" style="ellipse;whiteSpace=wrap;html=1;strokeColor=#00CC00;" parent="1" vertex="1">
                    <mxGeometry x="720" y="700" width="90" height="60" as="geometry"/>
                </mxCell>
                <mxCell id="2" value="View Appointments" style="ellipse;whiteSpace=wrap;html=1;" vertex="1" parent="1">
                    <mxGeometry x="472.5" y="700" width="120" height="60" as="geometry"/>
                </mxCell>
                <mxCell id="4" value="Book Appointment" style="ellipse;whiteSpace=wrap;html=1;strokeColor=#000000;" vertex="1" parent="1">
                    <mxGeometry x="382.5" y="330" width="120" height="60" as="geometry"/>
                </mxCell>
                <mxCell id="9" value="" style="endArrow=block;dashed=1;endFill=0;endSize=12;html=1;rounded=0;exitX=1;exitY=1;exitDx=0;exitDy=0;entryX=0.038;entryY=0.279;entryDx=0;entryDy=0;entryPerimeter=0;" edge="1" parent="1" source="4" target="hr4RtkWxtsuXZ8PvqBrc-8">
                    <mxGeometry width="160" relative="1" as="geometry">
                        <mxPoint x="505" y="400" as="sourcePoint"/>
                        <mxPoint x="610" y="340" as="targetPoint"/>
                    </mxGeometry>
                </mxCell>
                <mxCell id="10" value="" style="endArrow=block;dashed=1;endFill=0;endSize=12;html=1;rounded=0;exitX=0.987;exitY=0.384;exitDx=0;exitDy=0;entryX=0;entryY=0.5;entryDx=0;entryDy=0;exitPerimeter=0;" edge="1" parent="1" source="4" target="UJzTrE47GUZq4vCZpSli-7">
                    <mxGeometry width="160" relative="1" as="geometry">
                        <mxPoint x="530" y="310" as="sourcePoint"/>
                        <mxPoint x="380" y="350" as="targetPoint"/>
                    </mxGeometry>
                </mxCell>
                <mxCell id="11" value="&amp;lt;&amp;lt;includes&lt;span style=&quot;background-color: transparent;&quot;&gt;&amp;gt;&amp;gt;&lt;/span&gt;" style="text;html=1;align=center;verticalAlign=middle;whiteSpace=wrap;rounded=0;rotation=-25;" vertex="1" parent="1">
                    <mxGeometry x="500" y="315" width="60" height="15" as="geometry"/>
                </mxCell>
                <mxCell id="12" value="&amp;lt;&amp;lt;includes&amp;gt;&amp;gt;" style="text;html=1;align=center;verticalAlign=middle;whiteSpace=wrap;rounded=0;rotation=30;" vertex="1" parent="1">
                    <mxGeometry x="510" y="400" width="60" height="15" as="geometry"/>
                </mxCell>
                <mxCell id="13" value="&amp;lt;&amp;lt;extends&amp;gt;&amp;gt;" style="text;html=1;align=center;verticalAlign=middle;whiteSpace=wrap;rounded=0;rotation=0;" vertex="1" parent="1">
                    <mxGeometry x="340" y="520" width="60" height="15" as="geometry"/>
                </mxCell>
                <mxCell id="16" value="&amp;lt;&amp;lt;extends&amp;gt;&amp;gt;" style="text;html=1;align=center;verticalAlign=middle;whiteSpace=wrap;rounded=0;rotation=0;" vertex="1" parent="1">
                    <mxGeometry x="638.5" y="710" width="60" height="15" as="geometry"/>
                </mxCell>
                <mxCell id="18" value="Cancel Appointment" style="ellipse;whiteSpace=wrap;html=1;" vertex="1" parent="1">
                    <mxGeometry x="720" y="630" width="90" height="60" as="geometry"/>
                </mxCell>
                <mxCell id="19" value="" style="endArrow=block;dashed=1;endFill=0;endSize=12;html=1;rounded=0;entryX=1;entryY=0.5;entryDx=0;entryDy=0;exitX=0;exitY=0.5;exitDx=0;exitDy=0;" edge="1" parent="1" source="18" target="2">
                    <mxGeometry width="160" relative="1" as="geometry">
                        <mxPoint x="730" y="740" as="sourcePoint"/>
                        <mxPoint x="603" y="740" as="targetPoint"/>
                    </mxGeometry>
                </mxCell>
                <mxCell id="20" value="&amp;lt;&amp;lt;extends&amp;gt;&amp;gt;" style="text;html=1;align=center;verticalAlign=middle;whiteSpace=wrap;rounded=0;rotation=-30;" vertex="1" parent="1">
                    <mxGeometry x="638.5" y="670" width="60" height="15" as="geometry"/>
                </mxCell>
                <mxCell id="25" value="" style="endArrow=none;html=1;rounded=0;exitX=0;exitY=0.5;exitDx=0;exitDy=0;entryX=1;entryY=0.3333333333333333;entryDx=0;entryDy=0;entryPerimeter=0;" edge="1" parent="1" source="hr4RtkWxtsuXZ8PvqBrc-8" target="hr4RtkWxtsuXZ8PvqBrc-1">
                    <mxGeometry width="50" height="50" relative="1" as="geometry">
                        <mxPoint x="470" y="160" as="sourcePoint"/>
                        <mxPoint x="134" y="317" as="targetPoint"/>
                    </mxGeometry>
                </mxCell>
            </root>
        </mxGraphModel>
    </diagram>
</mxfile>